<?xml version="1.0" encoding="UTF-8"?>
<svg xmlns="http://www.w3.org/2000/svg" width="779" height="781.9" viewBox="0 0 779 781.9">
  <defs>
    <style>
      .cls-1 {
        fill: none;
      }

      .cls-2 {
        fill: #fff;
      }
    </style>
  </defs>
  <g>
    <g>
      <polygon class="cls-2" points="718.7 441.4 433.3 726.9 440.7 736.1 729 449.7 718.7 441.4"/>
      <path class="cls-2" d="M774.5,386.1l-.2-.4c-.5.6-1,1.2-1.6,1.8l-46.6,46.6,10.3,8.3,35.7-35.5c5.6-5.6,6.6-14.2,2.5-20.9Z"/>
      <path class="cls-2" d="M426,734.1l-38.5,38.5c-1.2,1.2-2.4,2.2-3.8,3,2.5,1.3,5.2,2,8.1,2h0c4.5,0,8.8-1.8,12-4.9l29.6-29.4-7.4-9.2Z"/>
    </g>
    <g>
      <path class="cls-2" d="M364.9,658.6c-.8-1-1.5-2-2.2-3.1-.6.3-1.3.5-2,.7l-32.1,32.1c-1.4,1.4-3.3,2.2-5.3,2.2s-3.9-.8-5.3-2.2l-233.1-233.1c-2.9-2.9-2.9-7.7,0-10.7L442.7,86.9c1.4-1.4,3.3-2.2,5.3-2.2s3.9.8,5.3,2.2l233.1,233.1c2.9,2.9,2.9,7.7,0,10.7l-37.9,37.9c-.3.8-.6,1.7-1,2.5,1,.6,1.9,1.3,2.9,2l70.3,56.8,47.1-47.1c6.9-6.9,6.9-18,0-24.9L415.1,5.2c-3.3-3.3-7.8-5.2-12.5-5.2s-9.1,1.8-12.5,5.2L5.2,390.2c-6.9,6.9-6.9,18.1,0,24.9l352.6,352.6c3.3,3.3,7.8,5.2,12.5,5.2s9.1-1.8,12.5-5.2l39-39-56.8-70.2ZM709.7,343.2l33,33-18.2,18.2-33-33,18.2-18.2ZM396.7,30.3l33,33-18.2,18.2-33-33,18.2-18.2ZM326.7,100.3l33,33-18.2,18.2-33-33,18.2-18.2ZM256.6,170.3l33,33-18.2,18.2-33-33,18.2-18.2ZM186.6,240.4l33,33-18.2,18.2-33-33,18.2-18.2ZM116.5,310.4l33,33-18.2,18.2-33-33,18.2-18.2ZM61.3,431.7l-33-33,18.2-18.2,33,33-18.2,18.2ZM374.3,744.6l-33-33,18.2-18.2,33,33-18.2,18.2Z"/>
      <polygon class="cls-2" points="531.6 491.9 531.8 485.3 477.8 539.2 484.4 539.1 531.6 491.9"/>
      <path class="cls-2" d="M644,381c-.8-.7-1.7-1.2-2.6-1.8l-26.4,26.4-34.8,34.8c-2.7,2.7-5.9,4.6-9.3,5.7l-28.7,28.7-.3,21.3-53.1,53.1-21.3.3-29,29c-1.1,3.4-3,6.6-5.7,9.3l-24.2,24.2-9.5,9.5-27.9,27.9c.5.9,1.1,1.8,1.8,2.6l56.1,69.4,284.4-284.4-69.4-56.1ZM444.3,674.6l-33-33,18.2-18.2,33,33-18.2,18.2ZM514.3,604.5l-33-33,18.2-18.2,33,33-18.2,18.2ZM584.4,534.5l-33-33,18.2-18.2,33,33-18.2,18.2ZM621.4,431.5l18.2-18.2,33,33-18.2,18.2-33-33Z"/>
    </g>
    <g>
      <polygon class="cls-2" points="734.3 454.1 445 741.4 453.7 752.2 745.1 462.8 734.3 454.1"/>
      <path class="cls-2" d="M776.6,414l-.7-1.1-34.2,34,10.8,8.7,21.8-21.7c5.4-5.3,6.3-13.5,2.3-19.9Z"/>
      <path class="cls-2" d="M437.7,748.6l-29.1,28.9c-.4.4-.9.8-1.3,1.2l1.3.8c2.6,1.6,5.5,2.4,8.5,2.4h0c4.3,0,8.4-1.7,11.4-4.7l17.9-17.8-8.7-10.8Z"/>
    </g>
    <path class="cls-2" d="M425.5,580.7l-57.4,57.4-5.3,5.3c-1.2,1.2-2.6,2.1-4,2.7-4.8,2-10.5,1.1-14.4-2.7-5.1-5.1-5.1-13.3,0-18.4l62.7-62.7c3.8-3.8,9.3-4.7,14-2.9,1.6.6,3.1,1.6,4.4,2.9,1.3,1.3,2.2,2.8,2.9,4.4,1.9,4.7.9,10.2-2.9,14Z"/>
    <polygon class="cls-2" points="532.1 462.9 531.6 491.9 484.4 539.1 455.5 539.6 532.1 462.9"/>
    <path class="cls-2" d="M638.1,367c-.6,1.3-1.5,2.5-2.5,3.6l-5.7,5.7-57,57c-3.8,3.8-9.4,4.8-14,2.9-1.6-.6-3.1-1.6-4.4-2.9s-2.2-2.8-2.9-4.4c-1.9-4.7-.9-10.2,2.9-14l62.7-62.7c5.1-5.1,13.3-5.1,18.4,0,4,4,4.8,10,2.5,14.8Z"/>
    <path class="cls-2" d="M748.9,503.6l-77.2,77.2-9.5,9.5-78.7,78.7-9.5,9.5-78.6,78.6c-5.9,5.9-13.7,9-21.4,8.6-6.3-.3-11.8-3.1-15.6-7.7l-85.6-105.9c-.7-.8-1.2-1.7-1.8-2.6l27.9-27.9,9.5-9.5,24.2-24.2c7.8-7.8,8.9-19.9,3.2-28.8l9.1-9.1,43.6-.7,53.1-53.1.7-43.6,8.8-8.8c9,5.7,21,4.6,28.8-3.2l34.8-34.8,26.4-26.4c.9.5,1.8,1.1,2.6,1.8l105.9,85.6c4.6,3.7,7.4,9.3,7.7,15.6.4,7.7-2.7,15.5-8.6,21.4Z"/>
    <path class="cls-1" d="M748.9,503.6l-77.2,77.2-56.8-175,26.4-26.4c.9.5,1.8,1.1,2.6,1.8l105.9,85.6c4.6,3.7,7.4,9.3,7.7,15.6.4,7.7-2.7,15.5-8.6,21.4Z"/>
    <path class="cls-1" d="M425.5,580.7l-57.4,57.4-5.3,5.3c-1.2,1.2-2.6,2.1-4,2.7-4.8,2-10.5,1.1-14.4-2.7-5.1-5.1-5.1-13.3,0-18.4l62.7-62.7c3.8-3.8,9.3-4.7,14-2.9,1.6.6,3.1,1.6,4.4,2.9,1.3,1.3,2.2,2.8,2.9,4.4,1.9,4.7.9,10.2-2.9,14Z"/>
    <path class="cls-1" d="M662.3,590.3l-78.7,78.7-175-56.8,24.2-24.2c7.8-7.8,8.9-19.9,3.2-28.8l9.1-9.1,43.6-.7,53.1-53.1.7-43.6,8.8-8.8c9,5.7,21,4.6,28.8-3.2l25.2-25.2,56.8,175Z"/>
    <path class="cls-1" d="M574,678.5l-78.6,78.6c-5.9,5.9-13.7,9-21.4,8.6-6.3-.3-11.8-3.1-15.6-7.7l-85.6-105.9c-.7-.8-1.2-1.7-1.8-2.6l27.9-27.9,175,56.8Z"/>
    <polygon class="cls-1" points="532.1 462.9 531.6 491.9 484.4 539.1 455.5 539.6 532.1 462.9"/>
    <path class="cls-1" d="M638.1,367c-.6,1.3-1.5,2.5-2.5,3.6l-5.7,5.7-57,57c-3.8,3.8-9.4,4.8-14,2.9-1.6-.6-3.1-1.6-4.4-2.9s-2.2-2.8-2.9-4.4c-1.9-4.7-.9-10.2,2.9-14l62.7-62.7c5.1-5.1,13.3-5.1,18.4,0,4,4,4.8,10,2.5,14.8Z"/>
    <path class="cls-1" d="M724,730.7c-9.4,9.3-20.8,15.3-32.3,16.9-10.9,1.5-20.5-1.2-27-7.7-8.9-8.9-10.6-24-4.4-39.2.6-1.5.6-3.3-.1-4.8-.7-1.5-2-2.7-3.6-3.2l-62.1-20.2,71.3-71.3,20.2,62.1c.5,1.6,1.7,2.9,3.2,3.6,1.5.7,3.3.7,4.8.1,15.2-6.3,30.3-4.6,39.2,4.3,13.8,13.8,9.7,40.4-9.2,59.3Z"/>
    <polygon points="671.8 580.7 662.3 590.3 605.4 415.2 614.9 405.7 671.8 580.7"/>
    <polygon points="583.5 669 574 678.5 399 621.7 408.5 612.1 583.5 669"/>
    <path class="cls-2" d="M732.8,738.9s0,0-.1.1l-.3.4s0,0-.1.1c-11.2,11-24.9,18.1-38.9,20-2.5.3-5,.5-7.4.5-11.7,0-22.1-4-29.7-11.6-11.1-11.2-14.5-28.4-9.1-46.2l-62.1-20.2,9.5-9.5,62.1,20.2c1.6.5,2.9,1.7,3.6,3.2.7,1.5.7,3.2.1,4.8-6.3,15.2-4.6,30.3,4.4,39.2,6.5,6.5,16.1,9.2,27,7.7,11.5-1.6,23-7.6,32.3-16.9,18.8-19,23-45.6,9.2-59.3s-24-10.6-39.2-4.3c-1.5.6-3.3.6-4.8-.1-1.5-.7-2.7-2-3.2-3.6l-20.2-62.1,9.5-9.5,20.2,62.1c17.7-5.3,35-2,46.2,9.1,18.4,18.4,14.4,52.3-8.9,76Z"/>
  </g>
</svg>